<svg width="51" height="14" viewBox="0 0 51 14" fill="none" xmlns="http://www.w3.org/2000/svg">
<path d="M45.337 5.3671L49.0143 6.56295C49.2158 6.62077 49.3873 6.75505 49.4824 6.93802C49.5891 7.12794 49.6147 7.34801 49.5569 7.5496C49.4274 7.97594 48.9966 8.22174 48.5749 8.11075L45.2986 7.21818L48.0799 9.67248C48.256 9.82529 48.3674 10.0337 48.3791 10.277C48.3977 10.5087 48.326 10.7334 48.1732 10.9096C48.0204 11.0857 47.8119 11.197 47.5687 11.2087C47.337 11.2274 47.1123 11.1557 46.9361 11.0029L44.7088 9.06955C44.6879 9.10431 44.674 9.12749 44.6532 9.16225C44.4449 9.50987 44.021 9.6653 43.6549 9.54039C43.6666 9.70487 43.6226 9.88328 43.5324 10.0339C43.2824 10.4511 42.7519 10.5741 42.3463 10.3311L40.4229 9.17833C38.9165 8.27558 38.4204 7.63179 38.0565 7.16168C37.8524 6.89768 37.7041 6.69852 37.426 6.53186C37.3333 6.4763 37.3008 6.34658 37.3563 6.25388C37.4119 6.16119 37.5416 6.12869 37.6343 6.18424C37.9819 6.39257 38.1697 6.63109 38.3783 6.91362C38.682 7.30036 39.0785 7.82142 40.1283 8.51358C40.1282 8.35604 40.1698 8.20775 40.2532 8.06871C40.4615 7.72109 40.8854 7.56565 41.2515 7.69056C41.2398 7.52608 41.2837 7.34767 41.374 7.19704C41.624 6.7799 42.1545 6.65684 42.56 6.89989L43.5449 7.49014C43.3687 7.10103 43.4217 6.6446 43.4771 6.23683L42.8304 5.50276C42.1357 6.26764 40.7849 5.94631 40.7316 5.93012C40.625 5.89774 40.5601 5.79584 40.5809 5.68231C40.6133 5.57572 40.7152 5.5108 40.8287 5.53159C40.8403 5.53854 42.1726 5.86451 42.6448 5.07658C42.6795 5.01864 42.7305 4.98618 42.7977 4.9792C42.8648 4.97221 42.9297 4.99535 42.9622 5.0463L43.8315 6.03973C43.8709 6.07909 43.8964 6.14163 43.8802 6.19492C43.7695 7.08923 43.7998 7.56415 44.5482 7.76068L44.7746 6.38443C44.8023 6.18055 44.779 6.00912 44.6862 5.79603L43.8794 4.61955C43.7171 4.44356 43.636 4.39495 43.4043 4.25607L43.3811 4.24218C42.1204 3.53391 41.2979 3.43472 40.6376 3.35397C40.2113 3.30322 39.8453 3.25708 39.4977 3.04875C39.405 2.9932 39.3725 2.86348 39.428 2.77078C39.4836 2.67808 39.6133 2.64558 39.706 2.70113C39.9841 2.86779 40.2783 2.90239 40.6861 2.95779C41.3464 3.03853 42.2407 3.14927 43.5778 3.88762L43.6126 3.90845C43.8675 4.06122 43.9834 4.13067 44.1897 4.36455C44.2013 4.37149 44.2013 4.37149 44.2059 4.39002L44.6743 5.08017L44.6859 5.08711L45.337 5.3671ZM41.2309 8.11917C41.0107 7.98723 40.7327 8.05687 40.6008 8.27703C40.4758 8.4856 40.5339 8.75663 40.7239 8.88627L42.5431 9.97651C42.7632 10.1084 43.0412 10.0388 43.1732 9.81865C43.3051 9.59849 43.2354 9.32052 43.0153 9.18858L41.2309 8.11917ZM42.3586 7.23592C42.1385 7.10398 41.8605 7.17362 41.7286 7.39378C41.5966 7.61393 41.6663 7.89191 41.8864 8.02385L43.2306 8.82937L43.6709 9.09325C43.891 9.22519 44.169 9.15555 44.3009 8.93539C44.4329 8.71523 44.3632 8.43726 44.1431 8.30532L42.3586 7.23592ZM44.9098 8.0246C44.8936 8.0779 44.8658 8.12425 44.8264 8.16365C44.7755 8.19611 44.7199 8.21004 44.6782 8.2008C44.6481 8.19849 44.6249 8.18461 44.6064 8.18925C44.6945 8.30504 44.7385 8.4417 44.7641 8.58301L47.1908 10.683C47.2812 10.7687 47.3994 10.808 47.5337 10.7941C47.6611 10.7917 47.7746 10.7337 47.8487 10.6364C47.9344 10.546 47.9737 10.4278 47.9598 10.2934C47.9574 10.166 47.8994 10.0525 47.8021 9.97843L44.9975 7.51025L44.9098 8.0246ZM45.1754 6.45141L45.1223 6.7503L48.672 7.71223C48.8736 7.77004 49.1075 7.6425 49.1537 7.43397C49.1861 7.32738 49.1698 7.22314 49.1165 7.12818C49.0631 7.03322 48.989 6.97303 48.8824 6.94065L45.1936 5.73785C45.182 5.73091 45.182 5.73091 45.1704 5.72396L45.0754 5.69853C45.1774 5.94868 45.2077 6.18729 45.1754 6.45141Z" fill="#207355"/>
<path d="M18.6392 9.00831C20.9794 9.9785 24.8334 8.0246 24.8637 8.00909L24.9093 7.99346L26.5693 7.85705C27.2238 7.7599 27.5709 7.37586 27.5681 7.05584C27.5656 6.7663 27.5194 6.70574 27.5041 6.70588C27.458 6.66056 27.1992 6.6933 27.047 6.70987L24.7167 6.8826C24.1993 6.96332 22.7998 7.2651 22.3922 7.71062C22.3016 7.80285 22.1644 7.80405 22.0723 7.72865C21.9801 7.63801 21.9789 7.50086 22.0543 7.40876C22.643 6.76354 24.4541 6.47341 24.6519 6.4412L26.9974 6.26833C27.3019 6.23519 27.591 6.18695 27.7907 6.36809C27.8061 6.3832 27.8215 6.3983 27.8369 6.41341L30.3794 6.1169C30.3946 6.11676 30.3946 6.11676 30.4099 6.11663C30.6537 6.1145 31.5357 5.89344 31.5304 5.28388C31.5294 5.17721 31.5289 5.11625 31.5134 5.08591C31.4371 5.07133 31.239 5.07306 31.1628 5.07373L26.0895 5.2704L25.2209 5.27798C23.316 5.29461 21.5984 5.81252 20.3518 6.17393C19.5614 6.40943 18.9534 6.59761 18.5115 6.60147C18.3896 6.60254 18.282 6.49679 18.2809 6.37488C18.2799 6.25297 18.3856 6.14536 18.5075 6.1443C18.8885 6.14098 19.4814 5.96816 20.2262 5.7483C21.5031 5.37139 23.2511 4.83797 25.2169 4.82081L26.0855 4.81323L31.1588 4.61656C31.7531 4.61137 31.9822 4.67033 31.9875 5.27989C31.9953 6.16376 30.9625 6.56901 30.4139 6.5738L28.0082 6.83864C28.0089 6.91483 28.0247 6.97566 28.0253 7.05185C28.0298 7.56998 27.5474 8.16856 26.6342 8.31369L25.0351 8.43432C24.686 8.60501 22.3793 9.72244 20.2306 9.74119C19.6058 9.74664 18.9954 9.66053 18.46 9.4366C18.3377 9.39194 18.2908 9.25519 18.3355 9.13288C18.3803 9.02581 18.5169 8.96365 18.6392 9.00831Z" fill="#207355"/>
<path d="M3.25084 10.5452L4.68771 9.54126C4.76131 9.49943 4.85666 9.48269 4.93613 9.52366C6.46356 10.221 8.54443 8.76871 8.55697 8.75783C8.58206 8.73608 8.63058 8.716 8.66654 8.70679L10.4481 8.48072L11.507 7.82648C11.6793 7.72106 11.7595 7.58555 11.7478 7.41993C11.7377 7.2309 11.5997 7.02097 11.4065 6.92481C11.2818 6.85707 11.0727 6.81863 10.8268 6.96587C10.5793 7.13654 10.2957 7.31641 10.0766 7.41849C10.0515 7.44024 10.0155 7.44944 9.99213 7.44777L7.48284 7.64551C7.36406 7.66058 7.25197 7.58197 7.22602 7.45066C7.22769 7.42723 7.07873 6.8752 7.38564 6.36744C7.58717 6.01695 7.95685 5.78437 8.44782 5.66637C8.57914 5.64042 8.723 5.6036 8.89028 5.56844C8.98564 5.5517 9.11695 5.52575 9.22485 5.49814L8.24945 4.65179C8.1499 4.5623 8.13817 4.39669 8.22765 4.29714C8.31714 4.19759 8.48275 4.18586 8.5823 4.27535L9.84547 5.37761L9.85635 5.39015C9.9216 5.46542 9.94922 5.57332 9.91912 5.66533C9.85725 5.87278 9.61803 5.92634 8.97399 6.0452C8.81925 6.06948 8.67539 6.1063 8.55662 6.12137C8.19696 6.21343 7.95107 6.36068 7.81727 6.58653C7.71023 6.76722 7.686 6.94204 7.68852 7.07169L9.91343 6.90075C10.2438 6.72422 10.764 6.36113 10.999 6.20134L11.1103 6.12688C11.3202 5.98884 11.4707 5.85834 11.49 5.75378C11.4966 5.6601 11.4364 5.51457 11.2858 5.31551C11.1679 5.1541 10.2025 4.16723 9.49976 3.45802C8.91836 2.86339 8.4022 2.34403 8.24995 2.1684C7.89106 1.75441 7.06809 2.40193 7.06809 2.40193C7.05555 2.4128 7.05555 2.4128 7.05555 2.4128C6.95685 2.47639 6.44503 3.05192 5.9583 3.60571C3.89846 5.91875 1.97075 8.02934 1.12179 8.21598C0.990472 8.24193 0.854958 8.16165 0.829011 8.03033C0.803063 7.89902 0.883344 7.7635 1.01466 7.73755C1.72897 7.6237 4.30063 4.73513 5.54088 3.35233C6.30862 2.48902 6.58962 2.1795 6.72594 2.08329C7.16335 1.72607 8.06498 1.29602 8.59787 1.91073C8.73925 2.07382 9.26628 2.60572 9.82594 3.17526C10.8457 4.22486 11.5267 4.90897 11.6555 5.08293C11.8914 5.40577 11.9793 5.6592 11.95 5.90428C11.9116 6.11339 11.7953 6.25811 11.6322 6.39949C11.6072 6.42124 11.5946 6.43212 11.5695 6.45387C11.5929 6.45554 11.6038 6.46809 11.6272 6.46976C11.9794 6.64787 12.2245 7.00667 12.2447 7.38474C12.2589 7.68 12.1469 7.93095 11.9085 8.13758C11.8709 8.1702 11.8207 8.21371 11.7596 8.24466L10.6506 8.9424C10.6255 8.96415 10.5896 8.97336 10.5536 8.98256L8.78455 9.19777C8.42575 9.44289 6.47868 10.6694 4.85256 10.0356L3.52693 10.965C3.41569 11.0395 3.26429 11.0169 3.18983 10.9057C3.1045 10.7819 3.12706 10.6305 3.25084 10.5452Z" fill="#207355"/>
</svg>
