<svg xmlns="http://www.w3.org/2000/svg" width="162" height="25" fill="none" viewBox="0 0 162 25"><path fill="#000" d="M5.51465 12.5391C6.12663 12.5391 6.67351 12.4674 7.15527 12.3242C7.64355 12.1745 8.05372 11.9629 8.38575 11.6895C8.72427 11.416 8.98145 11.0873 9.15723 10.7031C9.33302 10.319 9.42091 9.88609 9.42091 9.4043C9.42091 8.42125 9.09864 7.69205 8.45411 7.2168C7.81606 6.74154 6.88184 6.50391 5.65137 6.50391H3.12207V12.5391H5.51465ZM11.6475 19.5312H10.7881C10.6774 19.5312 10.583 19.515 10.5049 19.4824C10.4332 19.4434 10.3649 19.375 10.2998 19.2773L5.86621 13.6719C5.81413 13.6002 5.75879 13.5384 5.70019 13.4863C5.64812 13.4342 5.58627 13.3952 5.51465 13.3691C5.44955 13.3366 5.36816 13.3138 5.27051 13.3008C5.17936 13.2877 5.06543 13.2812 4.92871 13.2812H3.12207V19.5312H2.11621V5.71289H5.65137C7.23991 5.71289 8.42809 6.02213 9.21583 6.64062C10.0101 7.2526 10.4072 8.1543 10.4072 9.3457C10.4072 9.87305 10.3161 10.3548 10.1338 10.791C9.95153 11.2272 9.68786 11.6113 9.34278 11.9434C9.00427 12.2689 8.59083 12.5358 8.10255 12.7441C7.62077 12.9525 7.07715 13.0924 6.47168 13.1641C6.62793 13.2617 6.76791 13.392 6.8916 13.5547L11.6475 19.5312ZM17.3881 9.6582C18.0847 9.6582 18.7065 9.77867 19.2533 10.0195C19.8068 10.2539 20.2722 10.5892 20.6498 11.0254C21.0275 11.4616 21.3139 11.9889 21.5092 12.6074C21.7111 13.2194 21.8119 13.9062 21.8119 14.668C21.8119 15.4297 21.7111 16.1166 21.5092 16.7285C21.3139 17.3405 21.0275 17.8646 20.6498 18.3008C20.2722 18.737 19.8068 19.0723 19.2533 19.3066C18.7065 19.541 18.0847 19.6582 17.3881 19.6582C16.6915 19.6582 16.0665 19.541 15.5131 19.3066C14.9662 19.0723 14.5007 18.737 14.1166 18.3008C13.739 17.8646 13.4493 17.3405 13.2475 16.7285C13.0522 16.1166 12.9545 15.4297 12.9545 14.668C12.9545 13.9062 13.0522 13.2194 13.2475 12.6074C13.4493 11.9889 13.739 11.4616 14.1166 11.0254C14.5007 10.5892 14.9662 10.2539 15.5131 10.0195C16.0665 9.77867 16.6915 9.6582 17.3881 9.6582ZM17.3881 18.9258C17.9675 18.9258 18.4721 18.8281 18.9018 18.6328C19.338 18.431 19.6993 18.1445 19.9857 17.7734C20.2787 17.4023 20.4968 16.9564 20.64 16.4355C20.7833 15.9082 20.8549 15.319 20.8549 14.668C20.8549 14.0234 20.7833 13.4375 20.64 12.9102C20.4968 12.3828 20.2787 11.9336 19.9857 11.5625C19.6993 11.1849 19.338 10.8952 18.9018 10.6934C18.4721 10.4916 17.9675 10.3906 17.3881 10.3906C16.8087 10.3906 16.3009 10.4916 15.8647 10.6934C15.435 10.8952 15.0736 11.1849 14.7807 11.5625C14.4943 11.9336 14.2761 12.3828 14.1264 12.9102C13.9832 13.4375 13.9115 14.0234 13.9115 14.668C13.9115 15.319 13.9832 15.9082 14.1264 16.4355C14.2761 16.9564 14.4943 17.4023 14.7807 17.7734C15.0736 18.1445 15.435 18.431 15.8647 18.6328C16.3009 18.8281 16.8087 18.9258 17.3881 18.9258ZM30.9647 11.1133C30.9321 11.1459 30.8995 11.1752 30.867 11.2012C30.8409 11.2207 30.8018 11.2305 30.7498 11.2305C30.6847 11.2305 30.5968 11.1881 30.4861 11.1035C30.3754 11.0123 30.2257 10.9147 30.0369 10.8105C29.8481 10.7064 29.6104 10.612 29.324 10.5273C29.044 10.4362 28.7022 10.3906 28.2986 10.3906C27.7387 10.3906 27.2407 10.4916 26.8045 10.6934C26.3748 10.8887 26.0102 11.1719 25.7107 11.543C25.4112 11.9141 25.1834 12.3633 25.0272 12.8906C24.8774 13.418 24.8025 14.0104 24.8025 14.668C24.8025 15.3516 24.8807 15.957 25.0369 16.4844C25.1997 17.0117 25.4275 17.4577 25.7205 17.8223C26.0135 18.1803 26.3682 18.4537 26.785 18.6426C27.2016 18.8314 27.6639 18.9258 28.1717 18.9258C28.6404 18.9258 29.0311 18.8705 29.3436 18.7598C29.6625 18.6491 29.9229 18.5287 30.1248 18.3984C30.3331 18.2682 30.4959 18.1478 30.6131 18.0371C30.7303 17.9264 30.8279 17.8711 30.9061 17.8711C30.9842 17.8711 31.0493 17.9037 31.1014 17.9688L31.3455 18.2812C31.1957 18.4766 31.0069 18.6588 30.7791 18.8281C30.5512 18.9974 30.294 19.1439 30.0076 19.2676C29.7211 19.3913 29.4086 19.4857 29.0701 19.5508C28.7381 19.6224 28.3897 19.6582 28.0252 19.6582C27.4067 19.6582 26.8403 19.5475 26.326 19.3262C25.8182 19.0983 25.3787 18.7728 25.0076 18.3496C24.643 17.9199 24.3565 17.3959 24.1482 16.7773C23.9464 16.1588 23.8455 15.4557 23.8455 14.668C23.8455 13.9258 23.9432 13.2487 24.1385 12.6367C24.3338 12.0248 24.6202 11.4974 24.9979 11.0547C25.3754 10.612 25.8344 10.2702 26.3748 10.0293C26.9217 9.78187 27.5467 9.6582 28.2498 9.6582C28.8813 9.6582 29.4412 9.75914 29.9295 9.96094C30.4178 10.1627 30.8442 10.4362 31.2088 10.7813L30.9647 11.1133ZM34.5814 5.32227V13.9844H35.0307C35.1218 13.9844 35.2064 13.9713 35.2846 13.9453C35.3692 13.9193 35.4604 13.8574 35.558 13.7598L39.4545 10.0586C39.5196 9.98047 39.5912 9.92187 39.6693 9.88281C39.7475 9.83727 39.8451 9.81445 39.9623 9.81445H40.7826L36.4955 13.8867C36.3783 14.0234 36.2514 14.1309 36.1147 14.209C36.2188 14.2611 36.3067 14.3229 36.3783 14.3945C36.4565 14.4596 36.5313 14.5377 36.6029 14.6289L41.1049 19.5312H40.2943C40.2032 19.5312 40.1186 19.5182 40.0404 19.4922C39.9688 19.4596 39.9004 19.3978 39.8354 19.3066L35.7533 14.9316C35.7012 14.873 35.6491 14.8242 35.5971 14.7852C35.5515 14.7461 35.5026 14.7168 35.4506 14.6973C35.3985 14.6712 35.3366 14.6549 35.265 14.6484C35.1999 14.6354 35.1186 14.6289 35.0209 14.6289H34.5814V19.5312H33.644V5.32227H34.5814Z"/><path fill="#000" d="M42.8076 18.8867C43.3024 18.8607 43.6409 18.75 43.8232 18.5547C44.0055 18.3463 44.1032 18.0664 44.1162 17.7148C44.1422 17.3502 44.1553 16.9401 44.1553 16.4844V8.04687C44.1553 7.5 44.1748 7.03125 44.2139 6.64063C43.9795 6.65365 43.7451 6.66666 43.5107 6.67969C43.2764 6.69271 43.042 6.70573 42.8076 6.71875V5.85938C43.4977 5.84635 44.2073 5.83984 44.9365 5.83984C45.6657 5.82682 46.4079 5.82031 47.1631 5.82031C49.0511 5.82031 50.4899 6.13932 51.4795 6.77734C52.4821 7.41537 53.0094 8.35937 53.0615 9.60937C53.0875 10.1172 53.0094 10.651 52.8271 11.2109C52.6579 11.7578 52.3323 12.2787 51.8506 12.7734C51.3818 13.2552 50.7178 13.6459 49.8584 13.9453C48.999 14.2448 47.8987 14.3945 46.5576 14.3945C46.5055 14.3945 46.4079 14.3945 46.2646 14.3945C46.1214 14.3945 45.9846 14.388 45.8545 14.375V17.207C45.8545 17.8971 45.835 18.4115 45.7959 18.75C46.0954 18.724 46.3948 18.7044 46.6943 18.6914C46.9938 18.6784 47.2932 18.6654 47.5928 18.6523V19.5312H42.8076V18.8867ZM45.8545 13.5742C46.1018 13.6002 46.3102 13.6198 46.4795 13.6328C46.6618 13.6328 46.8766 13.6328 47.124 13.6328C47.8662 13.6328 48.5432 13.4896 49.1553 13.2031C49.7672 12.9037 50.2555 12.4805 50.6201 11.9336C50.9847 11.3867 51.167 10.7357 51.167 9.98047C51.167 9.16016 50.9912 8.50258 50.6396 8.00781C50.3011 7.5 49.8258 7.13541 49.2139 6.91406C48.6149 6.69271 47.9182 6.58203 47.124 6.58203C46.6682 6.58203 46.3493 6.67969 46.167 6.875C45.9977 7.07031 45.9 7.34375 45.874 7.69531C45.861 8.03383 45.8545 8.4375 45.8545 8.90625V13.5742ZM60.2414 19.5312C60.2023 19.3099 60.1763 19.1146 60.1632 18.9453C60.1502 18.776 60.1307 18.6002 60.1046 18.418C59.6619 18.8607 59.1802 19.2123 58.6593 19.4727C58.1515 19.7201 57.6111 19.8437 57.0382 19.8437C56.0486 19.8437 55.313 19.6224 54.8312 19.1797C54.3494 18.724 54.1086 18.1705 54.1086 17.5195C54.1086 16.9205 54.2908 16.4062 54.6554 15.9766C55.033 15.5338 55.5148 15.1758 56.1007 14.9023C56.6997 14.6159 57.3443 14.4076 58.0343 14.2773C58.7375 14.1341 59.4146 14.069 60.0656 14.082V12.8711C60.0656 12.4154 60.0265 11.9857 59.9484 11.582C59.8703 11.1784 59.701 10.8463 59.4406 10.5859C59.1802 10.3255 58.7635 10.1888 58.1906 10.1758C57.813 10.1627 57.4224 10.2344 57.0187 10.3906C56.6281 10.5469 56.3416 10.8138 56.1593 11.1914C56.2635 11.2955 56.3286 11.4193 56.3546 11.5625C56.3937 11.6927 56.4132 11.8164 56.4132 11.9336C56.4132 12.0898 56.3482 12.2721 56.2179 12.4805C56.0877 12.6758 55.8599 12.767 55.5343 12.7539C55.2609 12.7539 55.0525 12.6627 54.9093 12.4805C54.7661 12.2852 54.6945 12.0573 54.6945 11.7969C54.6945 11.3541 54.8572 10.957 55.1828 10.6055C55.5213 10.2539 55.9836 9.97398 56.5695 9.76562C57.1554 9.55727 57.8195 9.45312 58.5617 9.45312C59.6554 9.45312 60.4627 9.74609 60.9836 10.332C61.5044 10.9049 61.7583 11.8164 61.7453 13.0664C61.7453 13.7955 61.7388 14.5312 61.7257 15.2734C61.7257 16.0026 61.7257 16.7318 61.7257 17.4609C61.7257 17.6693 61.7193 17.8776 61.7062 18.0859C61.6932 18.2943 61.6736 18.5287 61.6476 18.7891C61.882 18.776 62.1099 18.763 62.3312 18.75C62.5656 18.737 62.8 18.724 63.0343 18.7109V19.5312H60.2414ZM60.0656 14.7461C59.6228 14.7591 59.1541 14.8177 58.6593 14.9219C58.1775 15.013 57.7283 15.1562 57.3117 15.3516C56.908 15.5469 56.576 15.8073 56.3156 16.1328C56.0682 16.4453 55.951 16.8295 55.964 17.2852C55.99 17.767 56.1463 18.1315 56.4328 18.3789C56.7322 18.6133 57.0838 18.7305 57.4875 18.7305C58.0213 18.7305 58.4836 18.6328 58.8742 18.4375C59.2779 18.2291 59.675 17.9427 60.0656 17.5781C60.0525 17.4349 60.0461 17.2787 60.0461 17.1094C60.0461 16.9401 60.0461 16.7643 60.0461 16.582C60.0461 16.517 60.0461 16.3086 60.0461 15.957C60.0591 15.6055 60.0656 15.2018 60.0656 14.7461ZM64.1989 24.5117V23.9258C64.6025 23.9258 64.8825 23.8216 65.0387 23.6133C65.195 23.418 65.2861 23.138 65.3121 22.7734C65.3382 22.4219 65.3512 22.0117 65.3512 21.543L65.3903 12.1094C65.3903 11.901 65.3903 11.6927 65.3903 11.4844C65.4033 11.276 65.4293 11.0612 65.4684 10.8398C65.234 10.8529 64.9996 10.8659 64.7653 10.8789C64.5439 10.892 64.3161 10.9049 64.0817 10.918V10.0977C64.6546 10.0977 65.0843 10.0716 65.3707 10.0195C65.6702 9.96742 65.885 9.90234 66.0153 9.82422C66.1586 9.74609 66.2757 9.66148 66.3668 9.57031H66.9528C66.9658 9.70055 66.9788 9.8568 66.9918 10.0391C67.0049 10.2084 67.0179 10.4037 67.0309 10.625C67.4215 10.2734 67.8838 9.99351 68.4176 9.78516C68.9645 9.56383 69.5114 9.45312 70.0582 9.45312C70.8135 9.45312 71.5166 9.64844 72.1676 10.0391C72.8187 10.4297 73.3461 10.9896 73.7496 11.7187C74.1533 12.4349 74.3551 13.2943 74.3551 14.2969C74.3551 15.4037 74.1207 16.3737 73.652 17.207C73.1963 18.0404 72.5908 18.6914 71.8356 19.1602C71.0804 19.6159 70.2601 19.8437 69.3746 19.8437C68.4762 19.8437 67.695 19.6289 67.0309 19.1992V22.4414C67.0309 22.7018 67.0244 22.9297 67.0114 23.125C67.0114 23.3334 66.9918 23.5482 66.9528 23.7695C67.1611 23.7565 67.3629 23.7435 67.5582 23.7305C67.7666 23.7305 67.9749 23.724 68.1832 23.7109V24.5117H64.1989ZM69.3356 19.0625C69.9606 19.0625 70.4945 18.8737 70.9371 18.4961C71.3929 18.1055 71.7379 17.5781 71.9723 16.9141C72.2197 16.237 72.3434 15.4687 72.3434 14.6094C72.3434 13.9062 72.2393 13.2357 72.0309 12.5977C71.8356 11.9466 71.5166 11.4193 71.0739 11.0156C70.6442 10.612 70.0713 10.4102 69.3551 10.4102C68.9125 10.4102 68.4828 10.5209 68.0661 10.7422C67.6624 10.9505 67.3239 11.2045 67.0504 11.5039C67.0504 11.556 67.0504 11.6341 67.0504 11.7383C67.0635 11.8295 67.07 11.9987 67.07 12.2461C67.07 12.4805 67.07 12.8385 67.07 13.3203C67.07 13.7891 67.0635 14.4271 67.0504 15.2344C67.0504 16.0416 67.0504 17.0638 67.0504 18.3008C67.7145 18.8086 68.4762 19.0625 69.3356 19.0625ZM80.7549 19.8437C79.8564 19.8437 79.0432 19.6354 78.3135 19.2187C77.5975 18.7891 77.0311 18.1901 76.6145 17.4219C76.1978 16.6406 75.9895 15.7227 75.9895 14.668C75.9895 13.7565 76.1913 12.9037 76.595 12.1094C77.0116 11.3151 77.5911 10.6771 78.333 10.1953C79.0752 9.70055 79.9346 9.45312 80.9111 9.45312C81.6408 9.45312 82.3049 9.60937 82.9033 9.92187C83.5025 10.2344 83.9775 10.7096 84.3291 11.3477C84.6939 11.9857 84.876 12.793 84.876 13.7695L78.0012 13.8867C77.9882 15.3841 78.2353 16.5885 78.7432 17.5C79.251 18.3984 80.0783 18.8477 81.2236 18.8477C81.6275 18.8477 82.0377 18.776 82.4541 18.6328C82.8838 18.4896 83.2814 18.2943 83.6455 18.0469C84.0104 17.7995 84.3033 17.526 84.5244 17.2266L84.9932 17.6172C84.6416 18.1641 84.2189 18.6002 83.7236 18.9258C83.2291 19.2513 82.7213 19.4857 82.2002 19.6289C81.6799 19.7721 81.1978 19.8437 80.7549 19.8437ZM78.0598 13.0664H83.04C83.04 12.5977 82.9689 12.1484 82.8252 11.7187C82.6955 11.276 82.4736 10.918 82.1611 10.6445C81.8486 10.358 81.4385 10.2148 80.9307 10.2148C80.176 10.2148 79.5439 10.4427 79.0361 10.8984C78.5416 11.3412 78.2158 12.0638 78.0598 13.0664ZM86.6143 18.9453C87.0182 18.9453 87.2979 18.8477 87.4541 18.6523C87.6104 18.444 87.7018 18.1641 87.7275 17.8125C87.7533 17.4479 87.7666 17.0312 87.7666 16.5625V12.1094C87.7666 11.901 87.7666 11.6927 87.7666 11.4844C87.7799 11.276 87.8057 11.0612 87.8447 10.8398C87.6104 10.8529 87.376 10.8659 87.1416 10.8789C86.9205 10.8789 86.6924 10.8854 86.458 10.8984V10.0977H87.0635C87.6236 10.0977 88.0072 10.0455 88.2158 9.94141C88.4369 9.82422 88.6197 9.70055 88.7627 9.57031H89.3291C89.3549 9.77867 89.3744 10.0391 89.3877 10.3516C89.401 10.651 89.4135 11.0352 89.4268 11.5039C89.6221 11.1784 89.8893 10.8594 90.2275 10.5469C90.5658 10.2344 90.9439 9.97398 91.3604 9.76562C91.79 9.55727 92.2393 9.45312 92.708 9.45312C93.0728 9.45312 93.3916 9.55078 93.665 9.74609C93.9385 9.94141 94.0752 10.2539 94.0752 10.6836C94.0752 10.8529 93.9971 11.0547 93.8408 11.2891C93.6978 11.5234 93.4502 11.6341 93.0986 11.6211C92.8119 11.608 92.5846 11.4974 92.415 11.2891C92.2455 11.0677 92.1807 10.8138 92.2197 10.5273C91.7252 10.5013 91.2236 10.6901 90.7158 11.0937C90.208 11.4974 89.7846 12.0182 89.4463 12.6562L89.4658 17.4609C89.4658 17.7213 89.4596 17.9557 89.4463 18.1641C89.4463 18.3594 89.4268 18.5677 89.3877 18.7891C89.5963 18.776 89.7979 18.7695 89.9932 18.7695C90.2018 18.7565 90.4096 18.7435 90.6182 18.7305V19.5312H86.6143V18.9453Z"/><path fill="#000" d="M103.629 7.39258C103.571 7.50326 103.487 7.55859 103.376 7.55859C103.291 7.55859 103.18 7.5 103.044 7.38281C102.914 7.25912 102.734 7.12565 102.507 6.98242C102.279 6.83268 101.992 6.69596 101.647 6.57227C101.308 6.44857 100.889 6.38672 100.387 6.38672C99.8865 6.38672 99.4436 6.45834 99.0592 6.60156C98.6818 6.74479 98.3631 6.9401 98.1021 7.1875C97.8482 7.4349 97.6529 7.72135 97.5162 8.04688C97.3865 8.37242 97.3209 8.71422 97.3209 9.07227C97.3209 9.54102 97.4186 9.92836 97.6139 10.2344C97.8162 10.5404 98.0795 10.8008 98.4053 11.0156C98.7303 11.2305 99.0982 11.4127 99.5084 11.5625C99.9256 11.7057 100.351 11.849 100.788 11.9922C101.224 12.1354 101.647 12.2949 102.058 12.4707C102.474 12.64 102.845 12.8548 103.171 13.1152C103.496 13.3756 103.757 13.6979 103.952 14.082C104.154 14.4596 104.254 14.9316 104.254 15.498C104.254 16.0775 104.154 16.6244 103.952 17.1387C103.757 17.6465 103.47 18.0892 103.093 18.4668C102.715 18.8444 102.253 19.1439 101.706 19.3652C101.159 19.5801 100.534 19.6875 99.8311 19.6875C98.9193 19.6875 98.135 19.528 97.4772 19.209C96.8201 18.8834 96.2436 18.4408 95.749 17.8809L96.0225 17.4512C96.1006 17.3535 96.1912 17.3047 96.2959 17.3047C96.3545 17.3047 96.4295 17.3438 96.5201 17.4219C96.6115 17.5 96.7225 17.5977 96.8522 17.7148C96.9826 17.8255 97.1389 17.9492 97.3209 18.0859C97.5037 18.2162 97.7147 18.3398 97.9561 18.457C98.1967 18.5677 98.4732 18.6621 98.7857 18.7402C99.0982 18.8184 99.4529 18.8574 99.8506 18.8574C100.397 18.8574 100.886 18.776 101.315 18.6133C101.745 18.444 102.106 18.2162 102.399 17.9297C102.699 17.6432 102.926 17.3047 103.083 16.9141C103.239 16.517 103.317 16.0938 103.317 15.6445C103.317 15.1563 103.216 14.7559 103.015 14.4434C102.819 14.1244 102.558 13.8607 102.233 13.6523C101.908 13.4375 101.537 13.2584 101.12 13.1152C100.71 12.972 100.287 12.832 99.8506 12.6953C99.4139 12.5586 98.9881 12.4056 98.5709 12.2363C98.1607 12.067 97.7928 11.8522 97.4678 11.5918C97.142 11.3248 96.8787 10.9961 96.6764 10.6055C96.4811 10.2084 96.3834 9.71352 96.3834 9.12109C96.3834 8.65883 96.4717 8.21289 96.6475 7.7832C96.8232 7.35352 97.0803 6.97591 97.4186 6.65039C97.7576 6.31836 98.174 6.05469 98.6686 5.85937C99.1701 5.65755 99.7396 5.55664 100.378 5.55664C101.094 5.55664 101.735 5.67057 102.301 5.89844C102.875 6.1263 103.395 6.47461 103.864 6.94336L103.629 7.39258ZM113.372 11.1133C113.339 11.1459 113.306 11.1752 113.274 11.2012C113.247 11.2207 113.208 11.2305 113.157 11.2305C113.091 11.2305 113.004 11.1881 112.893 11.1035C112.782 11.0123 112.633 10.9147 112.444 10.8105C112.254 10.7064 112.017 10.612 111.731 10.5273C111.451 10.4362 111.109 10.3906 110.705 10.3906C110.145 10.3906 109.647 10.4916 109.212 10.6934C108.782 10.8887 108.417 11.1719 108.118 11.543C107.818 11.9141 107.59 12.3633 107.434 12.8906C107.284 13.418 107.209 14.0104 107.209 14.668C107.209 15.3516 107.287 15.957 107.444 16.4844C107.606 17.0117 107.834 17.4577 108.127 17.8223C108.42 18.1803 108.775 18.4538 109.192 18.6426C109.608 18.8314 110.071 18.9258 110.579 18.9258C111.047 18.9258 111.438 18.8705 111.751 18.7598C112.069 18.6491 112.329 18.5287 112.532 18.3984C112.74 18.2682 112.903 18.1478 113.02 18.0371C113.137 17.9264 113.235 17.8711 113.313 17.8711C113.391 17.8711 113.456 17.9037 113.508 17.9688L113.752 18.2812C113.602 18.4766 113.414 18.6588 113.186 18.8281C112.958 18.9974 112.701 19.1439 112.415 19.2676C112.128 19.3913 111.815 19.4857 111.477 19.5508C111.145 19.6224 110.797 19.6582 110.432 19.6582C109.813 19.6582 109.247 19.5475 108.733 19.3262C108.225 19.0983 107.786 18.7728 107.415 18.3496C107.05 17.9199 106.763 17.3959 106.555 16.7773C106.353 16.1588 106.252 15.4557 106.252 14.668C106.252 13.9258 106.35 13.2487 106.545 12.6367C106.74 12.0248 107.027 11.4974 107.404 11.0547C107.782 10.612 108.241 10.2702 108.782 10.0293C109.329 9.78187 109.954 9.6582 110.657 9.6582C111.288 9.6582 111.848 9.75914 112.337 9.96094C112.825 10.1627 113.251 10.4362 113.615 10.7813L113.372 11.1133ZM117.086 9.81445V19.5313H116.158V9.81445H117.086ZM117.487 6.46484C117.487 6.58203 117.46 6.69271 117.408 6.79687C117.362 6.89453 117.301 6.98242 117.222 7.06055C117.144 7.13867 117.053 7.20052 116.949 7.24609C116.845 7.29166 116.734 7.31445 116.617 7.31445C116.5 7.31445 116.389 7.29166 116.285 7.24609C116.181 7.20052 116.09 7.13867 116.012 7.06055C115.933 6.98242 115.872 6.89453 115.826 6.79687C115.78 6.69271 115.758 6.58203 115.758 6.46484C115.758 6.34766 115.78 6.23698 115.826 6.13281C115.872 6.02213 115.933 5.92773 116.012 5.84961C116.09 5.77148 116.181 5.70963 116.285 5.66406C116.389 5.61849 116.5 5.5957 116.617 5.5957C116.734 5.5957 116.845 5.61849 116.949 5.66406C117.053 5.70963 117.144 5.77148 117.222 5.84961C117.301 5.92773 117.362 6.02213 117.408 6.13281C117.46 6.23698 117.487 6.34766 117.487 6.46484ZM125.741 11.0156C125.689 11.1068 125.615 11.1523 125.517 11.1523C125.445 11.1523 125.354 11.1133 125.244 11.0352C125.133 10.9505 124.983 10.8594 124.794 10.7617C124.612 10.6576 124.384 10.5664 124.111 10.4883C123.837 10.4037 123.505 10.3613 123.115 10.3613C122.763 10.3613 122.44 10.4134 122.147 10.5176C121.861 10.6152 121.614 10.7487 121.405 10.918C121.204 11.0873 121.047 11.2858 120.937 11.5137C120.826 11.735 120.771 11.9694 120.771 12.2168C120.771 12.5228 120.849 12.7767 121.005 12.9785C121.162 13.1803 121.363 13.3529 121.611 13.4961C121.865 13.6393 122.154 13.763 122.479 13.8672C122.805 13.9713 123.134 14.0755 123.466 14.1797C123.804 14.2838 124.137 14.401 124.462 14.5313C124.787 14.6549 125.074 14.8112 125.322 15C125.576 15.1888 125.78 15.4199 125.937 15.6934C126.093 15.9668 126.171 16.2988 126.171 16.6895C126.171 17.1127 126.096 17.5065 125.947 17.8711C125.797 18.2357 125.576 18.5514 125.283 18.8184C124.996 19.0853 124.641 19.2969 124.218 19.4531C123.794 19.6094 123.31 19.6875 122.763 19.6875C122.079 19.6875 121.49 19.5801 120.995 19.3652C120.501 19.1439 120.058 18.8574 119.667 18.5059L119.882 18.1738C119.915 18.1217 119.951 18.0827 119.99 18.0566C120.035 18.0306 120.094 18.0176 120.165 18.0176C120.25 18.0176 120.351 18.0697 120.468 18.1738C120.591 18.278 120.754 18.392 120.956 18.5156C121.158 18.6328 121.405 18.7435 121.698 18.8477C121.997 18.9518 122.365 19.0039 122.802 19.0039C123.212 19.0039 123.573 18.9486 123.886 18.8379C124.198 18.7207 124.458 18.5645 124.667 18.3691C124.876 18.1738 125.032 17.9459 125.136 17.6855C125.247 17.4186 125.302 17.1387 125.302 16.8457C125.302 16.5202 125.224 16.25 125.068 16.0352C124.912 15.8203 124.706 15.638 124.452 15.4883C124.198 15.3385 123.908 15.2116 123.583 15.1074C123.264 15.0033 122.935 14.8991 122.597 14.7949C122.258 14.6908 121.926 14.5768 121.601 14.4531C121.282 14.3295 120.995 14.1732 120.741 13.9844C120.487 13.7955 120.283 13.5677 120.126 13.3008C119.97 13.0273 119.892 12.6888 119.892 12.2852C119.892 11.9401 119.966 11.608 120.116 11.2891C120.266 10.9701 120.478 10.6901 120.751 10.4492C121.031 10.2084 121.369 10.0163 121.767 9.87305C122.164 9.72984 122.61 9.6582 123.104 9.6582C123.697 9.6582 124.221 9.74281 124.677 9.91211C125.139 10.0814 125.559 10.3418 125.937 10.6934L125.741 11.0156ZM134.038 11.0156C133.986 11.1068 133.912 11.1523 133.814 11.1523C133.742 11.1523 133.651 11.1133 133.54 11.0352C133.43 10.9505 133.279 10.8594 133.091 10.7617C132.908 10.6576 132.681 10.5664 132.408 10.4883C132.134 10.4037 131.802 10.3613 131.412 10.3613C131.06 10.3613 130.737 10.4134 130.444 10.5176C130.158 10.6152 129.911 10.7487 129.702 10.918C129.501 11.0873 129.344 11.2858 129.233 11.5137C129.122 11.735 129.068 11.9694 129.068 12.2168C129.068 12.5228 129.146 12.7767 129.302 12.9785C129.458 13.1803 129.66 13.3529 129.908 13.4961C130.162 13.6393 130.451 13.763 130.776 13.8672C131.102 13.9713 131.431 14.0755 131.763 14.1797C132.101 14.2838 132.433 14.401 132.759 14.5313C133.084 14.6549 133.371 14.8112 133.619 15C133.872 15.1888 134.077 15.4199 134.233 15.6934C134.39 15.9668 134.468 16.2988 134.468 16.6895C134.468 17.1127 134.393 17.5065 134.244 17.8711C134.094 18.2357 133.872 18.5514 133.579 18.8184C133.293 19.0853 132.938 19.2969 132.515 19.4531C132.091 19.6094 131.607 19.6875 131.06 19.6875C130.376 19.6875 129.787 19.5801 129.292 19.3652C128.797 19.1439 128.355 18.8574 127.964 18.5059L128.179 18.1738C128.212 18.1217 128.247 18.0827 128.287 18.0566C128.332 18.0306 128.39 18.0176 128.462 18.0176C128.547 18.0176 128.647 18.0697 128.765 18.1738C128.888 18.278 129.051 18.392 129.253 18.5156C129.454 18.6328 129.702 18.7435 129.995 18.8477C130.294 18.9518 130.662 19.0039 131.099 19.0039C131.509 19.0039 131.87 18.9486 132.183 18.8379C132.495 18.7207 132.755 18.5645 132.964 18.3691C133.172 18.1738 133.329 17.9459 133.433 17.6855C133.544 17.4186 133.599 17.1387 133.599 16.8457C133.599 16.5202 133.521 16.25 133.365 16.0352C133.208 15.8203 133.003 15.638 132.749 15.4883C132.495 15.3385 132.205 15.2116 131.88 15.1074C131.561 15.0033 131.232 14.8991 130.894 14.7949C130.555 14.6908 130.223 14.5768 129.897 14.4531C129.579 14.3295 129.292 14.1732 129.038 13.9844C128.784 13.7955 128.579 13.5677 128.423 13.3008C128.267 13.0273 128.189 12.6888 128.189 12.2852C128.189 11.9401 128.263 11.608 128.413 11.2891C128.563 10.9701 128.775 10.6901 129.048 10.4492C129.328 10.2084 129.666 10.0163 130.064 9.87305C130.461 9.72984 130.907 9.6582 131.401 9.6582C131.994 9.6582 132.518 9.74281 132.974 9.91211C133.436 10.0814 133.856 10.3418 134.233 10.6934L134.038 11.0156ZM140.841 9.6582C141.537 9.6582 142.159 9.77867 142.706 10.0195C143.26 10.2539 143.725 10.5892 144.103 11.0254C144.48 11.4616 144.767 11.9889 144.962 12.6074C145.164 13.2194 145.265 13.9063 145.265 14.668C145.265 15.4297 145.164 16.1166 144.962 16.7285C144.767 17.3405 144.48 17.8646 144.103 18.3008C143.725 18.737 143.26 19.0723 142.706 19.3066C142.159 19.541 141.537 19.6582 140.841 19.6582C140.144 19.6582 139.519 19.541 138.966 19.3066C138.419 19.0723 137.954 18.737 137.569 18.3008C137.192 17.8646 136.902 17.3405 136.701 16.7285C136.505 16.1166 136.408 15.4297 136.408 14.668C136.408 13.9063 136.505 13.2194 136.701 12.6074C136.902 11.9889 137.192 11.4616 137.569 11.0254C137.954 10.5892 138.419 10.2539 138.966 10.0195C139.519 9.77867 140.144 9.6582 140.841 9.6582ZM140.841 18.9258C141.42 18.9258 141.925 18.8281 142.355 18.6328C142.791 18.431 143.152 18.1445 143.439 17.7734C143.732 17.4023 143.95 16.9564 144.093 16.4355C144.237 15.9082 144.308 15.319 144.308 14.668C144.308 14.0234 144.237 13.4375 144.093 12.9102C143.95 12.3828 143.732 11.9336 143.439 11.5625C143.152 11.1849 142.791 10.8952 142.355 10.6934C141.925 10.4916 141.42 10.3906 140.841 10.3906C140.262 10.3906 139.754 10.4916 139.318 10.6934C138.888 10.8952 138.526 11.1849 138.233 11.5625C137.947 11.9336 137.729 12.3828 137.58 12.9102C137.436 13.4375 137.365 14.0234 137.365 14.668C137.365 15.319 137.436 15.9082 137.58 16.4355C137.729 16.9564 137.947 17.4023 138.233 17.7734C138.526 18.1445 138.888 18.431 139.318 18.6328C139.754 18.8281 140.262 18.9258 140.841 18.9258ZM148.773 12.1582C148.922 11.7611 149.092 11.4095 149.281 11.1035C149.476 10.791 149.697 10.5273 149.945 10.3125C150.199 10.0977 150.479 9.93492 150.785 9.82422C151.097 9.70703 151.442 9.64844 151.82 9.64844C152.022 9.64844 152.22 9.66797 152.415 9.70703C152.611 9.73961 152.783 9.80141 152.933 9.89258L152.855 10.5371C152.822 10.6413 152.761 10.6934 152.669 10.6934C152.591 10.6934 152.471 10.6705 152.308 10.625C152.152 10.5795 151.944 10.5566 151.683 10.5566C151.305 10.5566 150.97 10.6152 150.677 10.7324C150.391 10.8431 150.13 11.0123 149.896 11.2402C149.669 11.4681 149.466 11.7513 149.29 12.0898C149.122 12.4219 148.965 12.806 148.822 13.2422V19.5313H147.884V9.81445H148.383C148.493 9.81445 148.571 9.83727 148.617 9.88281C148.662 9.92836 148.692 10.0065 148.704 10.1172L148.773 12.1582ZM160.016 11.0156C159.964 11.1068 159.89 11.1523 159.792 11.1523C159.72 11.1523 159.629 11.1133 159.519 11.0352C159.408 10.9505 159.258 10.8594 159.069 10.7617C158.887 10.6576 158.659 10.5664 158.386 10.4883C158.112 10.4037 157.78 10.3613 157.39 10.3613C157.038 10.3613 156.715 10.4134 156.422 10.5176C156.136 10.6152 155.889 10.7487 155.68 10.918C155.479 11.0873 155.322 11.2858 155.212 11.5137C155.101 11.735 155.046 11.9694 155.046 12.2168C155.046 12.5228 155.124 12.7767 155.28 12.9785C155.437 13.1803 155.638 13.3529 155.886 13.4961C156.14 13.6393 156.429 13.763 156.754 13.8672C157.08 13.9713 157.409 14.0755 157.741 14.1797C158.079 14.2838 158.412 14.401 158.737 14.5313C159.062 14.6549 159.349 14.8112 159.597 15C159.851 15.1888 160.055 15.4199 160.212 15.6934C160.368 15.9668 160.446 16.2988 160.446 16.6895C160.446 17.1127 160.371 17.5065 160.222 17.8711C160.072 18.2357 159.851 18.5514 159.558 18.8184C159.271 19.0853 158.916 19.2969 158.493 19.4531C158.069 19.6094 157.585 19.6875 157.038 19.6875C156.355 19.6875 155.765 19.5801 155.27 19.3652C154.776 19.1439 154.333 18.8574 153.942 18.5059L154.157 18.1738C154.19 18.1217 154.226 18.0827 154.265 18.0566C154.31 18.0306 154.369 18.0176 154.44 18.0176C154.525 18.0176 154.626 18.0697 154.743 18.1738C154.866 18.278 155.029 18.392 155.231 18.5156C155.433 18.6328 155.68 18.7435 155.973 18.8477C156.272 18.9518 156.64 19.0039 157.077 19.0039C157.487 19.0039 157.848 18.9486 158.161 18.8379C158.473 18.7207 158.733 18.5645 158.942 18.3691C159.151 18.1738 159.307 17.9459 159.411 17.6855C159.522 17.4186 159.577 17.1387 159.577 16.8457C159.577 16.5202 159.499 16.25 159.343 16.0352C159.187 15.8203 158.981 15.638 158.727 15.4883C158.473 15.3385 158.183 15.2116 157.858 15.1074C157.539 15.0033 157.21 14.8991 156.872 14.7949C156.533 14.6908 156.201 14.5768 155.876 14.4531C155.557 14.3295 155.27 14.1732 155.016 13.9844C154.762 13.7955 154.558 13.5677 154.401 13.3008C154.245 13.0273 154.167 12.6888 154.167 12.2852C154.167 11.9401 154.241 11.608 154.391 11.2891C154.541 10.9701 154.753 10.6901 155.026 10.4492C155.306 10.2084 155.644 10.0163 156.042 9.87305C156.439 9.72984 156.885 9.6582 157.379 9.6582C157.972 9.6582 158.496 9.74281 158.952 9.91211C159.414 10.0814 159.834 10.3418 160.212 10.6934L160.016 11.0156Z"/></svg>