<svg xmlns="http://www.w3.org/2000/svg" width="101" height="27" fill="none" viewBox="0 0 101 27"><path fill="#207355" d="M90.3368 9.80767L97.6913 12.1994C98.0945 12.315 98.4375 12.5836 98.6277 12.9495C98.841 13.3293 98.8922 13.7695 98.7766 14.1727C98.5175 15.0253 97.656 15.5169 96.8126 15.295L90.26 13.5098L95.8226 18.4184C96.1749 18.724 96.3975 19.1409 96.421 19.6274C96.4583 20.0908 96.3149 20.5403 96.0092 20.8926C95.7036 21.2449 95.2867 21.4675 94.8002 21.4909C94.3369 21.5282 93.8874 21.3848 93.5351 21.0792L89.0803 17.2126C89.0387 17.2821 89.0109 17.3284 88.9692 17.398C88.5526 18.0932 87.7048 18.4041 86.9726 18.1542C86.9959 18.4832 86.9081 18.84 86.7275 19.1413C86.2276 19.9756 85.1666 20.2217 84.3555 19.7356L80.5086 17.4301C77.4959 15.6246 76.5037 14.337 75.7758 13.3968C75.3677 12.8688 75.071 12.4705 74.5148 12.1372C74.3294 12.0261 74.2644 11.7666 74.3755 11.5812C74.4866 11.3958 74.7461 11.3308 74.9315 11.4419C75.6267 11.8586 76.0022 12.3356 76.4195 12.9007C77.0269 13.6742 77.8198 14.7163 79.9194 16.1006C79.9193 15.7855 80.0025 15.489 80.1692 15.2109C80.5858 14.5156 81.4336 14.2048 82.1658 14.4546C82.1425 14.1256 82.2303 13.7688 82.4109 13.4675C82.9109 12.6333 83.9718 12.3871 84.7829 12.8732L86.7527 14.0538C86.4002 13.2755 86.5063 12.3627 86.6171 11.5471L85.3236 10.079C83.9343 11.6087 81.2327 10.9661 81.1261 10.9337C80.9129 10.869 80.7831 10.6651 80.8247 10.4381C80.8894 10.2249 81.0932 10.0951 81.3203 10.1367C81.3435 10.1505 84.008 10.8025 84.9525 9.22663C85.0219 9.11076 85.1238 9.04584 85.2582 9.03187C85.3925 9.0179 85.5223 9.06417 85.5872 9.16607L87.3258 11.1529C87.4046 11.2317 87.4556 11.3567 87.4232 11.4633C87.2018 13.2519 87.2625 14.2018 88.7593 14.5948L89.2119 11.8423C89.2673 11.4346 89.2208 11.0917 89.0353 10.6655L87.4216 8.31257C87.0971 7.9606 86.9349 7.86338 86.4714 7.58561L86.425 7.55783C83.9037 6.1413 82.2587 5.94291 80.9381 5.78142C80.0855 5.67992 79.3534 5.58763 78.6582 5.17098C78.4728 5.05987 78.4078 4.80043 78.5189 4.61504C78.63 4.42964 78.8894 4.36464 79.0748 4.47575C79.631 4.80907 80.2195 4.87827 81.035 4.98905C82.3556 5.15054 84.1443 5.37202 86.8185 6.84872L86.888 6.89038C87.3979 7.19593 87.6296 7.33481 88.0422 7.80257C88.0654 7.81646 88.0654 7.81646 88.0747 7.85353L89.0114 9.23381L89.0345 9.2477L90.3368 9.80767ZM82.1246 15.3118C81.6842 15.0479 81.1283 15.1872 80.8644 15.6275C80.6144 16.0447 80.7305 16.5867 81.1106 16.846L84.749 19.0265C85.1893 19.2903 85.7453 19.1511 86.0091 18.7107C86.273 18.2704 86.1337 17.7145 85.6934 17.4506L82.1246 15.3118ZM84.3801 13.5453C83.9398 13.2814 83.3839 13.4207 83.12 13.861C82.8561 14.3013 82.9954 14.8573 83.4357 15.1212L86.124 16.7322L87.0046 17.26C87.4449 17.5238 88.0008 17.3846 88.2647 16.9442C88.5286 16.5039 88.3893 15.948 87.949 15.6841L84.3801 13.5453ZM89.4824 15.1227C89.45 15.2293 89.3944 15.322 89.3157 15.4008C89.2138 15.4657 89.1026 15.4935 89.0192 15.4751C88.959 15.4704 88.9126 15.4427 88.8756 15.452C89.0517 15.6835 89.1399 15.9569 89.191 16.2395L94.0444 20.4395C94.2252 20.6109 94.4616 20.6895 94.7303 20.6616C94.9851 20.6568 95.2121 20.5408 95.3603 20.3462C95.5316 20.1654 95.6103 19.929 95.5823 19.6603C95.5776 19.4055 95.4616 19.1785 95.2669 19.0303L89.6579 14.094L89.4824 15.1227ZM90.0136 11.9763L89.9073 12.5741L97.0068 14.4979C97.4099 14.6135 97.8778 14.3585 97.9702 13.9414C98.035 13.7282 98.0024 13.5197 97.8958 13.3298C97.7891 13.1399 97.6408 13.0195 97.4276 12.9548L90.0499 10.5492C90.0268 10.5353 90.0268 10.5353 90.0036 10.5214L89.8136 10.4705C90.0177 10.9708 90.0782 11.448 90.0136 11.9763Z"/><path fill="#207355" d="M36.9413 17.0901C41.6217 19.0305 49.3296 15.1227 49.3903 15.0917L49.4815 15.0604L52.8014 14.7876C54.1104 14.5933 54.8047 13.8252 54.7991 13.1852C54.7941 12.6061 54.7016 12.485 54.6711 12.4852C54.5789 12.3946 54.0613 12.4601 53.7568 12.4932L49.0963 12.8387C48.0614 13.0001 45.2625 13.6037 44.4473 14.4947C44.266 14.6792 43.9917 14.6816 43.8075 14.5308C43.623 14.3495 43.6206 14.0752 43.7714 13.891C44.9489 12.6006 48.571 12.0203 48.9667 11.9559L53.6576 11.6101C54.2667 11.5439 54.8449 11.4474 55.2443 11.8097C55.2751 11.8399 55.3058 11.8701 55.3366 11.9003L60.4216 11.3073C60.4521 11.307 60.4521 11.307 60.4826 11.3067C60.9702 11.3025 62.7342 10.8604 62.7236 9.64125C62.7217 9.4279 62.7207 9.30599 62.6896 9.2453C62.537 9.21615 62.1408 9.21961 61.9884 9.22094L51.8419 9.61429L50.1046 9.62945C46.2949 9.6627 42.8596 10.6985 40.3666 11.4213C38.7857 11.8923 37.5698 12.2687 36.6859 12.2764C36.4421 12.2785 36.2269 12.0671 36.2247 11.8232C36.2226 11.5794 36.4341 11.3642 36.6779 11.3621C37.4399 11.3554 38.6256 11.0098 40.1153 10.5701C42.6691 9.81626 46.165 8.74942 50.0966 8.71511L51.8339 8.69995L61.9804 8.3066C63.1691 8.29623 63.6273 8.41415 63.6379 9.63327C63.6534 11.401 61.5878 12.2115 60.4906 12.2211L55.6793 12.7508C55.6806 12.9031 55.7122 13.0248 55.7135 13.1772C55.7225 14.2134 54.7576 15.4106 52.9313 15.7008L49.733 15.9421C49.0349 16.2835 44.4214 18.5183 40.124 18.5558C38.8744 18.5667 37.6537 18.3945 36.583 17.9467C36.3384 17.8574 36.2445 17.5838 36.3338 17.3392C36.4234 17.1251 36.6967 17.0008 36.9413 17.0901Z"/><path fill="#207355" d="M6.16455 20.1638L9.03828 18.156C9.18548 18.0723 9.37618 18.0388 9.53512 18.1208C12.59 19.5155 16.7517 16.6109 16.7768 16.5891C16.827 16.5456 16.924 16.5055 16.9959 16.487L20.5591 16.0349L22.6768 14.7264C23.0214 14.5156 23.1819 14.2446 23.1584 13.9133C23.1383 13.5353 22.8622 13.1154 22.4758 12.9231C22.2265 12.7876 21.8083 12.7107 21.3165 13.0052C20.8214 13.3465 20.2543 13.7063 19.816 13.9104C19.7659 13.9539 19.6939 13.9723 19.6471 13.969L14.6285 14.3645C14.391 14.3946 14.1668 14.2374 14.1149 13.9748C14.1182 13.9279 13.8203 12.8239 14.4341 11.8084C14.8372 11.1074 15.5765 10.6422 16.5585 10.4062C16.8211 10.3543 17.1088 10.2807 17.4434 10.2104C17.6341 10.1769 17.8967 10.125 18.1125 10.0697L16.1617 8.37705C15.9626 8.19808 15.9392 7.86686 16.1181 7.66776C16.2971 7.46866 16.6283 7.4452 16.8274 7.62417L19.3538 9.82868L19.3755 9.85377C19.506 10.0043 19.5613 10.2201 19.5011 10.4041C19.3773 10.819 18.8989 10.9261 17.6108 11.1639C17.3013 11.2124 17.0136 11.2861 16.7761 11.3162C16.0568 11.5003 15.565 11.7948 15.2974 12.2465C15.0833 12.6079 15.0348 12.9575 15.0399 13.2168L19.4897 12.875C20.1504 12.5219 21.1909 11.7957 21.6609 11.4762L21.8834 11.3272C22.3032 11.0512 22.6043 10.7901 22.6428 10.581C22.6561 10.3937 22.5356 10.1026 22.2345 9.7045C21.9985 9.38167 20.0678 7.40793 18.6624 5.98952C17.4996 4.80026 16.4672 3.76155 16.1627 3.41028C15.445 2.58231 13.799 3.87733 13.799 3.87733C13.7739 3.89909 13.7739 3.89909 13.7739 3.89909C13.5766 4.02625 12.5529 5.17733 11.5794 6.2849C7.45978 10.911 3.60437 15.1321 1.90645 15.5054C1.64381 15.5573 1.37279 15.3968 1.32089 15.1341C1.269 14.8715 1.42956 14.6005 1.69219 14.5486C3.1208 14.3209 8.26411 8.54373 10.7446 5.77813C12.2801 4.05152 12.8421 3.43248 13.1147 3.24006C13.9896 2.52562 15.7928 1.66552 16.8586 2.89494C17.1413 3.22112 18.1954 4.28492 19.3147 5.424C21.3542 7.52319 22.7161 8.89142 22.9738 9.23934C23.4456 9.88501 23.6214 10.3919 23.5629 10.882C23.486 11.3003 23.2535 11.5897 22.9273 11.8725C22.8771 11.916 22.852 11.9377 22.8019 11.9812C22.8487 11.9845 22.8705 12.0096 22.9173 12.013C23.6216 12.3692 24.1119 13.0868 24.1521 13.8429C24.1806 14.4335 23.9565 14.9354 23.4798 15.3486C23.4046 15.4139 23.3042 15.5009 23.1821 15.5628L20.964 16.9583C20.9139 17.0018 20.8419 17.0202 20.77 17.0386L17.2319 17.469C16.5143 17.9592 12.6202 20.4122 9.36797 19.1446L6.71671 21.0035C6.49424 21.1524 6.19144 21.1073 6.04252 20.8848C5.87186 20.6373 5.91698 20.3345 6.16455 20.1638Z"/></svg>